<svg version="1.2" xmlns="http://www.w3.org/2000/svg" viewBox="0 0 266 90" width="266" height="90">
	<style>
		.s0 { fill: #ffffff } 
	</style>
	<path id="dixon" class="s0" aria-label="dixon"  d="m28.3 21.6q5.8 0 10.4 2.6 4.5 2.5 7.3 7v-30.5h16.9v86.3h-16.2v-8.8q-3.6 5.6-8.2 8.2-4.5 2.6-11.3 2.6-11.2 0-18.9-9-7.6-9.1-7.6-23.3 0-16.3 7.5-25.7 7.5-9.4 20.1-9.4zm3.7 53.3q7.1 0 10.8-5.2 3.7-5.3 3.7-13.7 0-11.7-6-16.8-3.6-3-8.4-3-7.3 0-10.8 5.6-3.4 5.5-3.4 13.7 0 8.8 3.5 14.2 3.5 5.2 10.6 5.2zm52-74.8v15.4h-17v-15.4zm-16.9 86.9v-63.9h16.9v63.9zm36.8 0h-20.3l21.8-32.3-20.8-31.5h20.4l10.7 18.6 10.4-18.6h19.9l-21 31.2 21.8 32.6h-20.8l-11-19.2zm69.6-11.7q7.3 0 11.3-5.3 3.9-5.2 3.9-14.8 0-9.6-3.9-14.7-4-5.3-11.3-5.3-7.3 0-11.3 5.3-3.9 5.1-3.9 14.7 0 9.6 3.9 14.8 4 5.3 11.3 5.3zm32.7-20.1q0 14.1-8.1 24.1-8.1 10-24.5 10-16.5 0-24.6-10-8.1-10-8.1-24.1 0-13.8 8.1-23.9 8.1-10.2 24.6-10.2 16.4 0 24.5 10.2 8.1 10.1 8.1 23.9zm-32.6-33.7zm69.7 0.1q9.9 0 16.1 5.3 6.4 5.1 6.4 17.1v43h-17.2v-38.8q0-5-1.3-7.7-2.5-5-9.4-5-8.5 0-11.6 7.2-1.7 3.9-1.7 9.8v34.5h-16.6v-63.7h16.1v9.3q3.2-4.9 6.1-7.1 5.1-3.9 13.1-3.9zm-6.2-0.1z"/>
</svg>